<svg xmlns="http://www.w3.org/2000/svg" viewBox="0 0 900 650">
  <defs><linearGradient id="bg" x1="0" y1="0" x2="1" y2="1"><stop stop-color="#1f252b"/><stop offset="1" stop-color="#080b0e"/></linearGradient><linearGradient id="car" x1="0" x2="1"><stop stop-color="#273f59"/><stop offset="1" stop-color="#5f7fa2"/></linearGradient></defs>
  <rect width="900" height="650" fill="url(#bg)"/>
  <rect x="82" y="78" width="736" height="480" rx="50" fill="#11171d"/>
  <path d="M165 360c30-125 135-185 316-185h80c83 0 154 50 183 128l23 60H165Z" fill="url(#car)"/>
  <path d="M438 188v172" stroke="#e0e8ef" stroke-width="7" opacity=".45"/>
  <path d="M458 284c37-20 84-13 118 18" stroke="#132031" stroke-width="13" stroke-linecap="round" opacity=".8"/>
  <path d="M491 260c13 35 46 54 86 48" stroke="#f36d2f" stroke-width="8" stroke-linecap="round"/>
  <circle cx="275" cy="392" r="57" fill="#0f1316"/><circle cx="275" cy="392" r="28" fill="#737b84"/>
  <circle cx="653" cy="392" r="57" fill="#0f1316"/><circle cx="653" cy="392" r="28" fill="#737b84"/>
  <rect x="145" y="535" width="270" height="44" rx="22" fill="#f36d2f"/><text x="170" y="565" font-family="Arial" font-size="24" font-weight="700" fill="#101010">Foto demo · Puerta</text>
</svg>
